<?xml version="1.0" standalone="no"?>
<!DOCTYPE svg PUBLIC "-//W3C//DTD SVG 20010904//EN"
 "http://www.w3.org/TR/2001/REC-SVG-20010904/DTD/svg10.dtd">
<svg version="1.0" xmlns="http://www.w3.org/2000/svg"
 width="485.000000pt" height="515.000000pt" viewBox="0 0 485.000000 515.000000"
 preserveAspectRatio="xMidYMid meet">

<g transform="translate(0.000000,515.000000) scale(0.100000,-0.100000)"
fill="#000000" stroke="none">
<path d="M2357 4949 c-106 -25 -204 -104 -259 -211 -31 -60 -33 -68 -33 -173
0 -105 2 -113 34 -175 40 -78 112 -149 189 -187 51 -25 67 -28 162 -28 95 0
111 3 162 28 83 41 151 109 190 192 30 65 33 78 33 170 0 92 -3 106 -32 167
-80 169 -265 260 -446 217z m212 -21 c116 -46 185 -111 228 -214 86 -202 -16
-436 -224 -514 -80 -30 -194 -25 -276 13 -74 34 -158 118 -194 194 -23 51 -27
71 -27 158 0 93 2 105 33 167 54 109 149 184 264 208 48 10 158 3 196 -12z"/>
<path d="M1537 4150 c-136 -35 -266 -174 -282 -302 -5 -43 -5 -43 10 9 35 126
105 210 215 261 46 22 69 26 145 26 112 0 182 -25 255 -91 95 -85 129 -168
134 -327 5 -143 22 -190 95 -267 85 -89 130 -103 346 -103 210 0 255 13 334
100 65 71 91 140 91 244 0 158 38 258 130 343 117 109 287 134 424 65 59 -30
143 -114 170 -172 14 -28 25 -44 26 -35 0 9 -17 43 -38 75 -63 98 -153 157
-265 176 -190 31 -364 -75 -433 -262 -9 -26 -19 -98 -23 -171 -6 -102 -12
-134 -31 -173 -64 -127 -147 -175 -323 -183 -256 -13 -386 37 -456 175 -25 49
-44 153 -35 197 3 20 -1 66 -11 110 -29 131 -129 250 -245 291 -55 19 -182 27
-233 14z"/>
<path d="M3637 3794 c6 -121 11 -137 11 -34 0 47 -3 94 -7 104 -4 11 -6 -20
-4 -70z"/>
<path d="M1243 3760 c0 -25 2 -35 4 -22 2 12 2 32 0 45 -2 12 -4 2 -4 -23z"/>
<path d="M1242 3660 c0 -19 2 -27 5 -17 2 9 2 25 0 35 -3 9 -5 1 -5 -18z"/>
<path d="M3651 3639 c0 -13 4 -33 9 -44 7 -14 8 -8 3 20 -7 46 -13 59 -12 24z"/>
<path d="M1231 3604 c0 -11 3 -14 6 -6 3 7 2 16 -1 19 -3 4 -6 -2 -5 -13z"/>
<path d="M1202 3530 c-57 -119 -137 -159 -342 -170 -187 -10 -262 -43 -343
-149 -58 -75 -79 -133 -82 -225 l-4 -81 9 82 c16 151 99 272 228 331 49 22 76
27 193 32 154 8 219 26 278 76 36 31 96 126 89 143 -2 4 -13 -13 -26 -39z"/>
<path d="M3670 3567 c0 -19 45 -95 78 -130 55 -57 122 -77 282 -87 155 -9 221
-28 288 -86 115 -98 168 -262 128 -395 -34 -110 -107 -199 -206 -247 -49 -24
-66 -27 -160 -27 -96 0 -110 3 -165 29 -76 38 -144 106 -179 180 -23 48 -30
84 -41 204 -13 127 -19 155 -45 209 -35 71 -95 121 -175 146 -65 20 -106 26
-99 16 3 -5 16 -9 29 -9 36 0 121 -34 161 -65 76 -58 107 -141 122 -331 7 -91
14 -122 39 -175 72 -153 250 -249 408 -220 133 25 234 100 292 219 36 72 38
81 38 172 0 86 -3 101 -32 160 -42 86 -111 156 -193 193 -58 27 -79 31 -206
37 -123 7 -150 11 -202 35 -70 31 -90 51 -131 125 -17 30 -31 51 -31 47z"/>
<path d="M1475 3379 c-127 -23 -223 -109 -255 -227 -6 -23 -15 -96 -19 -162
-7 -101 -13 -128 -39 -184 -37 -79 -97 -140 -178 -181 -54 -28 -67 -30 -164
-30 -96 0 -110 3 -165 29 -74 37 -135 98 -174 178 -17 34 -31 55 -31 48 0 -29
67 -134 109 -172 59 -52 105 -75 188 -94 125 -29 264 17 359 118 72 77 95 139
105 279 16 225 58 304 198 367 50 22 71 25 203 26 81 1 150 4 152 7 8 7 -245
5 -289 -2z"/>
<path d="M1788 3373 c6 -2 18 -2 25 0 6 3 1 5 -13 5 -14 0 -19 -2 -12 -5z"/>
<path d="M3103 3373 c9 -2 25 -2 35 0 9 3 1 5 -18 5 -19 0 -27 -2 -17 -5z"/>
<path d="M3223 3373 c26 -2 67 -2 90 0 23 2 2 3 -48 3 -49 0 -68 -1 -42 -3z"/>
<path d="M1840 3360 c8 -5 20 -10 25 -10 6 0 3 5 -5 10 -8 5 -19 10 -25 10 -5
0 -3 -5 5 -10z"/>
<path d="M3015 3349 c-127 -69 -171 -153 -184 -349 -13 -184 -60 -278 -177
-352 -134 -84 -268 -86 -400 -5 -120 74 -173 168 -184 327 l-7 95 -1 -82 c-4
-198 121 -358 318 -403 l55 -13 -62 -13 c-114 -23 -211 -94 -266 -194 -37 -67
-47 -113 -56 -245 -12 -178 -57 -261 -176 -322 -45 -24 -66 -27 -200 -33 -136
-6 -155 -9 -208 -34 -227 -109 -294 -398 -137 -601 22 -29 58 -65 79 -79 53
-37 166 -76 222 -76 107 0 240 66 307 153 64 82 74 115 83 272 8 126 11 145
39 201 37 76 90 125 164 153 49 18 78 21 221 21 191 0 248 -15 321 -82 73 -67
96 -128 105 -276 10 -168 28 -222 103 -309 70 -81 208 -139 313 -130 110 8
229 78 292 171 138 202 69 470 -151 582 -48 24 -68 28 -203 34 -174 9 -219 23
-289 93 -62 62 -85 132 -95 282 -9 127 -27 190 -74 259 -31 46 -110 114 -154
132 -49 21 -53 16 -8 -8 59 -30 121 -84 153 -131 49 -72 63 -124 72 -258 8
-108 13 -136 38 -190 35 -75 88 -130 157 -160 40 -18 78 -24 195 -29 101 -6
157 -13 185 -25 251 -108 314 -428 123 -625 -85 -88 -216 -133 -321 -112 -149
30 -267 132 -309 267 -5 16 -13 86 -17 155 -6 103 -12 136 -33 180 -35 77 -71
116 -142 153 l-61 32 -180 3 c-166 3 -185 2 -239 -19 -77 -28 -138 -86 -177
-164 -28 -57 -31 -75 -38 -201 -7 -121 -11 -146 -35 -195 -34 -72 -108 -142
-194 -182 -220 -103 -473 40 -522 294 -31 159 56 326 207 401 62 30 74 32 212
38 171 8 216 24 292 102 61 62 77 111 94 284 11 118 17 150 41 200 36 74 112
149 184 183 48 22 69 25 163 26 98 0 104 1 65 11 l-43 11 45 11 c83 22 168 72
220 130 68 76 97 162 103 302 8 169 59 269 166 325 25 13 42 24 36 24 -5 0
-19 -5 -30 -10z"/>
<path d="M1894 3337 c80 -49 126 -115 151 -215 13 -51 14 -52 10 -13 -9 74
-43 137 -102 191 -30 28 -60 50 -66 49 -7 0 -3 -6 7 -12z"/>
<path d="M441 2884 c0 -11 3 -14 6 -6 3 7 2 16 -1 19 -3 4 -6 -2 -5 -13z"/>
<path d="M1585 639 c-4 -6 -5 -12 -2 -15 2 -3 7 2 10 11 7 17 1 20 -8 4z"/>
<path d="M2120 640 c0 -5 7 -7 15 -4 8 4 15 8 15 10 0 2 -7 4 -15 4 -8 0 -15
-4 -15 -10z"/>
<path d="M2476 642 c-3 -5 8 -6 25 -4 16 2 29 6 29 8 0 8 -49 4 -54 -4z"/>
<path d="M4218 633 c6 -2 18 -2 25 0 6 3 1 5 -13 5 -14 0 -19 -2 -12 -5z"/>
<path d="M4278 633 c7 -3 16 -2 19 1 4 3 -2 6 -13 5 -11 0 -14 -3 -6 -6z"/>
<path d="M1328 623 c7 -3 16 -2 19 1 4 3 -2 6 -13 5 -11 0 -14 -3 -6 -6z"/>
<path d="M2927 612 c3 -12 9 -25 14 -28 14 -8 11 10 -6 32 -13 18 -14 18 -8
-4z"/>
<path d="M3790 595 c0 -19 2 -35 4 -35 2 0 6 16 8 35 2 19 0 35 -4 35 -4 0 -8
-16 -8 -35z"/>
<path d="M3999 613 c0 -11 -3 -13 -6 -5 -2 6 -18 12 -35 12 -26 0 -29 -2 -18
-15 7 -8 23 -15 35 -15 14 0 25 -7 28 -17 3 -10 5 -1 6 20 0 20 -1 37 -4 37
-3 0 -5 -8 -6 -17z"/>
<path d="M1430 573 c13 -18 25 -33 27 -33 8 0 -17 38 -33 51 -11 9 -9 2 6 -18z"/>
<path d="M4103 588 c-15 -20 -25 -38 -20 -38 3 0 12 11 21 25 17 26 16 35 -1
13z"/>
<path d="M2787 561 c-4 -17 -3 -21 5 -13 5 5 8 16 6 23 -3 8 -7 3 -11 -10z"/>
<path d="M998 552 c10 -7 12 -50 10 -190 -2 -100 0 -178 5 -173 4 4 6 88 5
186 -3 148 -6 179 -18 182 -12 4 -12 2 -2 -5z"/>
<path d="M1722 540 c0 -14 2 -19 5 -12 2 6 2 18 0 25 -3 6 -5 1 -5 -13z"/>
<path d="M2182 533 c-15 -16 -19 -21 -7 -12 11 9 29 21 40 27 11 6 14 12 8 12
-7 0 -25 -12 -41 -27z"/>
<path d="M3360 540 c0 -11 2 -20 4 -20 2 0 6 9 9 20 3 11 1 20 -4 20 -5 0 -9
-9 -9 -20z"/>
<path d="M3530 412 l5 -147 3 139 c1 77 -1 143 -5 147 -4 5 -6 -58 -3 -139z"/>
<path d="M3944 547 c-2 -7 -3 -69 -2 -138 l3 -124 5 138 c3 75 4 137 2 137 -1
0 -5 -6 -8 -13z"/>
<path d="M4184 538 c-19 -23 -19 -23 1 -7 11 9 27 19 35 22 13 5 13 6 -1 6 -9
1 -24 -9 -35 -21z"/>
<path d="M1268 543 c7 -3 16 -2 19 1 4 3 -2 6 -13 5 -11 0 -14 -3 -6 -6z"/>
<path d="M1910 547 c0 -2 15 -16 33 -33 l32 -29 -29 33 c-28 30 -36 37 -36 29z"/>
<path d="M2264 375 c0 -99 2 -138 3 -87 2 51 2 132 0 180 -1 48 -3 6 -3 -93z"/>
<path d="M2475 520 c10 -11 20 -20 23 -20 3 0 -3 9 -13 20 -10 11 -20 20 -23
20 -3 0 3 -9 13 -20z"/>
<path d="M1614 505 c-9 -14 -15 -27 -13 -30 3 -2 12 10 21 26 21 36 15 39 -8
4z"/>
<path d="M4350 527 c0 -2 15 -16 33 -33 l32 -29 -29 33 c-28 30 -36 37 -36 29z"/>
<path d="M1461 504 c0 -11 3 -14 6 -6 3 7 2 16 -1 19 -3 4 -6 -2 -5 -13z"/>
<path d="M2970 506 c0 -8 4 -17 9 -20 5 -4 7 3 4 14 -6 23 -13 26 -13 6z"/>
<path d="M4062 485 c0 -16 2 -22 5 -12 2 9 2 23 0 30 -3 6 -5 -1 -5 -18z"/>
<path d="M626 487 c3 -10 9 -15 12 -12 3 3 0 11 -7 18 -10 9 -11 8 -5 -6z"/>
<path d="M1530 480 c0 -11 4 -20 9 -20 5 0 7 9 4 20 -3 11 -7 20 -9 20 -2 0
-4 -9 -4 -20z"/>
<path d="M2756 485 c-9 -26 -7 -32 5 -12 6 10 9 21 6 23 -2 3 -7 -2 -11 -11z"/>
<path d="M4475 475 c0 -13 3 -21 8 -18 4 2 7 10 7 18 0 8 -3 16 -7 18 -5 3 -8
-5 -8 -18z"/>
<path d="M2510 470 c6 -11 15 -20 20 -20 6 0 2 9 -7 20 -10 11 -19 20 -21 20
-1 0 2 -9 8 -20z"/>
<path d="M2565 468 l-20 -21 23 12 c12 6 22 16 22 21 0 13 -2 12 -25 -12z"/>
<path d="M1461 473 c-1 -6 -4 -20 -7 -30 -5 -17 -5 -17 6 0 6 10 9 23 6 30 -3
9 -5 9 -5 0z"/>
<path d="M1720 333 c-3 -84 -1 -149 3 -144 4 4 6 72 5 152 l-3 144 -5 -152z"/>
<path d="M1316 442 l-19 -27 24 22 c12 12 21 24 18 27 -2 2 -13 -8 -23 -22z"/>
<path d="M4417 449 c7 -7 15 -10 18 -7 3 3 -2 9 -12 12 -14 6 -15 5 -6 -5z"/>
<path d="M770 445 c0 -5 5 -17 10 -25 5 -8 10 -10 10 -5 0 6 -5 17 -10 25 -5
8 -10 11 -10 5z"/>
<path d="M3363 395 c0 -33 2 -45 4 -27 2 18 2 45 0 60 -2 15 -4 0 -4 -33z"/>
<path d="M1415 394 c-18 -16 -22 -22 -9 -15 18 9 53 42 43 41 -2 -1 -17 -12
-34 -26z"/>
<path d="M2805 410 c-3 -5 -1 -10 4 -10 6 0 11 5 11 10 0 6 -2 10 -4 10 -3 0
-8 -4 -11 -10z"/>
<path d="M466 323 c-6 -14 -5 -15 5 -6 7 7 10 15 7 18 -3 3 -9 -2 -12 -12z"/>
<path d="M4208 333 c7 -3 16 -2 19 1 4 3 -2 6 -13 5 -11 0 -14 -3 -6 -6z"/>
<path d="M1220 293 c18 -24 35 -43 37 -43 7 0 -35 56 -54 71 -9 8 -2 -5 17
-28z"/>
<path d="M4100 326 c0 -2 7 -7 16 -10 8 -3 12 -2 9 4 -6 10 -25 14 -25 6z"/>
<path d="M1355 300 c10 -11 20 -20 23 -20 3 0 -3 9 -13 20 -10 11 -20 20 -23
20 -3 0 3 -9 13 -20z"/>
<path d="M4055 309 c-11 -16 -1 -19 13 -3 7 8 8 14 3 14 -5 0 -13 -5 -16 -11z"/>
<path d="M4170 245 c19 -19 36 -35 39 -35 3 0 -10 16 -29 35 -19 19 -36 35
-39 35 -3 0 10 -16 29 -35z"/>
<path d="M3070 255 c0 -5 5 -17 10 -25 5 -8 10 -10 10 -5 0 6 -5 17 -10 25 -5
8 -10 11 -10 5z"/>
<path d="M3362 240 c0 -14 2 -19 5 -12 2 6 2 18 0 25 -3 6 -5 1 -5 -13z"/>
<path d="M1430 215 c19 -19 36 -35 39 -35 3 0 -10 16 -29 35 -19 19 -36 35
-39 35 -3 0 10 -16 29 -35z"/>
<path d="M3670 231 c0 -6 4 -13 10 -16 6 -3 7 1 4 9 -7 18 -14 21 -14 7z"/>
<path d="M4495 230 c-3 -5 -1 -10 4 -10 6 0 11 5 11 10 0 6 -2 10 -4 10 -3 0
-8 -4 -11 -10z"/>
<path d="M4378 208 c-10 -10 -14 -18 -9 -18 10 0 36 29 30 34 -2 1 -12 -6 -21
-16z"/>
<path d="M2740 206 c0 -8 4 -17 9 -20 5 -4 7 3 4 14 -6 23 -13 26 -13 6z"/>
<path d="M2947 201 c-4 -17 -3 -21 5 -13 5 5 8 16 6 23 -3 8 -7 3 -11 -10z"/>
<path d="M3911 197 c-13 -21 -12 -21 5 -5 10 10 16 20 13 22 -3 3 -11 -5 -18
-17z"/>
<path d="M409 193 c-13 -16 -12 -17 4 -4 16 13 21 21 13 21 -2 0 -10 -8 -17
-17z"/>
<path d="M510 201 c0 -6 4 -13 10 -16 6 -3 7 1 4 9 -7 18 -14 21 -14 7z"/>
<path d="M1130 206 c0 -2 8 -10 18 -17 15 -13 16 -12 3 4 -13 16 -21 21 -21
13z"/>
<path d="M1280 206 c0 -2 8 -10 18 -17 15 -13 16 -12 3 4 -13 16 -21 21 -21
13z"/>
<path d="M3360 201 c0 -6 4 -13 10 -16 6 -3 7 1 4 9 -7 18 -14 21 -14 7z"/>
<path d="M4071 194 c0 -11 3 -14 6 -6 3 7 2 16 -1 19 -3 4 -6 -2 -5 -13z"/>
<path d="M3575 170 c10 -11 20 -20 23 -20 3 0 -3 9 -13 20 -10 11 -20 20 -23
20 -3 0 3 -9 13 -20z"/>
<path d="M4293 183 c9 -2 25 -2 35 0 9 3 1 5 -18 5 -19 0 -27 -2 -17 -5z"/>
<path d="M4464 168 l-19 -23 23 19 c12 11 22 21 22 23 0 8 -8 2 -26 -19z"/>
<path d="M373 145 c0 -22 2 -30 4 -17 2 12 2 30 0 40 -3 9 -5 -1 -4 -23z"/>
<path d="M1663 145 c0 -22 2 -30 4 -17 2 12 2 30 0 40 -3 9 -5 -1 -4 -23z"/>
<path d="M1912 150 c0 -19 2 -27 5 -17 2 9 2 25 0 35 -3 9 -5 1 -5 -18z"/>
<path d="M2201 164 c0 -11 3 -14 6 -6 3 7 2 16 -1 19 -3 4 -6 -2 -5 -13z"/>
<path d="M2793 145 c0 -22 2 -30 4 -17 2 12 2 30 0 40 -3 9 -5 -1 -4 -23z"/>
<path d="M2903 145 c0 -22 2 -30 4 -17 2 12 2 30 0 40 -3 9 -5 -1 -4 -23z"/>
<path d="M3138 145 c2 -19 6 -35 8 -35 2 0 4 16 4 35 0 19 -4 35 -8 35 -4 0
-6 -16 -4 -35z"/>
<path d="M1310 166 c0 -2 8 -10 18 -17 15 -13 16 -12 3 4 -13 16 -21 21 -21
13z"/>
<path d="M2201 124 c0 -11 3 -14 6 -6 3 7 2 16 -1 19 -3 4 -6 -2 -5 -13z"/>
<path d="M3728 103 c6 -2 18 -2 25 0 6 3 1 5 -13 5 -14 0 -19 -2 -12 -5z"/>
<path d="M4298 103 c6 -2 18 -2 25 0 6 3 1 5 -13 5 -14 0 -19 -2 -12 -5z"/>
</g>
</svg>
